<svg width="113" height="97" viewBox="0 0 113 97" fill="none" xmlns="http://www.w3.org/2000/svg">
<path d="M107.268 44.8772C107.295 44.85 107.295 44.85 107.268 44.8772C113.474 37.2562 118.672 16.598 100.028 4.37718C91.9988 -0.875843 83.1258 -0.903061 76.0764 1.68263C64.3728 5.95581 56.4796 16.4347 56.4796 16.4347V44.8772H107.268Z" fill="#4285F4"/>
<path d="M56.5068 16.4347C56.5068 16.4347 48.6137 5.95581 36.9101 1.68263C29.8607 -0.903061 20.9877 -0.875843 12.9584 4.37718C-5.68575 16.598 -0.487155 37.2562 5.69128 44.85L5.71849 44.8772H56.5068V16.4347Z" fill="#DB4437"/>
<path d="M56.5068 44.8772V96.4821C56.5068 96.4821 95.0744 59.847 107.295 44.8772H56.5068Z" fill="#F4B400"/>
<path d="M5.71851 44.8772C17.9393 59.847 56.5068 96.4821 56.5068 96.4821V44.8772H5.71851Z" fill="#0F9D58"/>
</svg>
