<svg width="186" height="54" viewBox="0 0 186 54" fill="none" xmlns="http://www.w3.org/2000/svg">
<path d="M179.495 52.6425H6.50345C3.67439 52.6425 1.38379 50.3831 1.38379 47.5924V5.69078C1.38379 3.30483 3.3496 1.36572 5.7684 1.36572H179.495C182.324 1.36572 184.615 3.62521 184.615 6.41584V47.5924C184.615 50.3746 182.324 52.6425 179.495 52.6425Z" fill="white"/>
<path d="M179 54H7C3.13675 54 0 50.9058 0 47.0951V6.90492C0 3.09415 3.13675 0 7 0H179C182.863 0 186 3.09415 186 6.90492V47.0951C185.991 50.9058 182.855 54 179 54ZM7 1.36581C3.90598 1.36581 1.38462 3.85293 1.38462 6.90492V47.0951C1.38462 50.1471 3.90598 52.6342 7 52.6342H179C182.094 52.6342 184.615 50.1471 184.615 47.0951V6.90492C184.615 3.8445 182.094 1.36581 179 1.36581H7Z" fill="white"/>
<path d="M92.5556 29.5335C89.3688 29.5335 86.7636 31.9616 86.7636 35.3002C86.7636 38.622 89.3603 41.0669 92.5556 41.0669C95.7425 41.0669 98.3477 38.622 98.3477 35.3002C98.3393 31.9616 95.7425 29.5335 92.5556 29.5335ZM92.5556 38.799C90.8104 38.799 89.3013 37.3573 89.3013 35.3002C89.3013 33.2262 90.8104 31.8014 92.5556 31.8014C94.3008 31.8014 95.81 33.2178 95.81 35.3002C95.81 37.3573 94.3008 38.799 92.5556 38.799ZM79.9261 29.5335C76.7393 29.5335 74.1341 31.9616 74.1341 35.3002C74.1341 38.622 76.7308 41.0669 79.9261 41.0669C83.113 41.0669 85.7182 38.622 85.7182 35.3002C85.7097 31.9616 83.113 29.5335 79.9261 29.5335ZM79.9261 38.799C78.1809 38.799 76.6718 37.3573 76.6718 35.3002C76.6718 33.2262 78.1809 31.8014 79.9261 31.8014C81.6713 31.8014 83.1805 33.2178 83.1805 35.3002C83.1805 37.3573 81.6713 38.799 79.9261 38.799ZM64.9023 31.3039V33.7489H70.7533C70.5763 35.1232 70.121 36.1264 69.4212 36.8262C68.5697 37.6777 67.2376 38.6135 64.9023 38.6135C61.2938 38.6135 58.4779 35.7049 58.4779 32.1049C58.4779 28.5049 61.2938 25.5962 64.9023 25.5962C66.8498 25.5962 68.2662 26.3634 69.3116 27.3414L71.04 25.6131C69.573 24.2135 67.6339 23.1428 64.9023 23.1428C59.9617 23.1428 55.8137 27.1644 55.8137 32.0965C55.8137 37.037 59.9617 41.0501 64.9023 41.0501C67.5664 41.0501 69.5814 40.1733 71.1496 38.5377C72.7683 36.9189 73.2657 34.651 73.2657 32.8131C73.2657 32.2482 73.2236 31.7171 73.1308 31.2871H64.9023V31.3039ZM126.338 33.2009C125.858 31.911 124.391 29.5335 121.398 29.5335C118.43 29.5335 115.96 31.8688 115.96 35.3002C115.96 38.5377 118.405 41.0669 121.684 41.0669C124.332 41.0669 125.858 39.4482 126.49 38.5124L124.526 37.2056C123.868 38.1667 122.974 38.799 121.684 38.799C120.395 38.799 119.476 38.2089 118.885 37.0538L126.6 33.8669L126.338 33.2009ZM118.472 35.1232C118.405 32.8974 120.201 31.7592 121.491 31.7592C122.494 31.7592 123.345 32.2651 123.632 32.9817L118.472 35.1232ZM112.208 40.7213H114.746V23.7667H112.208V40.7213ZM108.052 30.8234H107.967C107.402 30.1489 106.306 29.5335 104.932 29.5335C102.049 29.5335 99.4016 32.0712 99.4016 35.3255C99.4016 38.5545 102.049 41.0669 104.932 41.0669C106.306 41.0669 107.402 40.4515 107.967 39.7602H108.052V40.5864C108.052 42.7953 106.871 43.9756 104.974 43.9756C103.423 43.9756 102.462 42.8627 102.066 41.9185L99.8568 42.8374C100.489 44.3634 102.175 46.2435 104.966 46.2435C107.934 46.2435 110.446 44.4983 110.446 40.2323V29.8791H108.043V30.8234H108.052ZM105.151 38.799C103.406 38.799 101.939 37.3321 101.939 35.3255C101.939 33.2936 103.406 31.8098 105.151 31.8098C106.88 31.8098 108.229 33.2936 108.229 35.3255C108.229 37.3321 106.871 38.799 105.151 38.799ZM138.209 23.7667H132.147V40.7213H134.676V34.2969H138.209C141.017 34.2969 143.773 32.2651 143.773 29.036C143.773 25.7986 141.017 23.7667 138.209 23.7667ZM138.276 31.9363H134.676V26.1274H138.276C140.165 26.1274 141.244 27.6955 141.244 29.036C141.244 30.3428 140.165 31.9363 138.276 31.9363ZM153.907 29.4997C152.078 29.4997 150.181 30.3091 149.397 32.0965L151.639 33.0323C152.12 32.0965 153.014 31.7929 153.95 31.7929C155.256 31.7929 156.588 32.577 156.614 33.9765V34.1536C156.158 33.8922 155.172 33.496 153.975 33.496C151.555 33.496 149.093 34.8281 149.093 37.3152C149.093 39.5831 151.075 41.0417 153.3 41.0417C155.003 41.0417 155.939 40.2744 156.529 39.3808H156.614V40.6876H159.059V34.1873C159.059 31.1775 156.816 29.4997 153.907 29.4997ZM153.604 38.7906C152.778 38.7906 151.623 38.3775 151.623 37.3489C151.623 36.0421 153.064 35.5363 154.304 35.5363C155.417 35.5363 155.939 35.7723 156.614 36.1011C156.42 37.6777 155.071 38.7906 153.604 38.7906ZM167.953 29.8707L165.053 37.2225H164.969L161.959 29.8707H159.236L163.746 40.1395L161.175 45.8557H163.814L170.769 29.8707H167.953ZM145.165 40.7213H147.694V23.7667H145.165V40.7213Z" fill="black"/>
<path d="M14.3077 10.2689C13.9115 10.682 13.6838 11.3312 13.6838 12.1743V42.1377C13.6838 42.9808 13.9199 43.6216 14.3077 44.0431L14.4089 44.1443L31.1948 27.3583V27.156V26.9621L14.4089 10.1761L14.3077 10.2689Z" fill="#5BC9F4"/>
<path d="M36.7925 32.9564L31.1943 27.3583V27.1559V26.962L36.7925 21.3639L36.9189 21.4398L43.5456 25.2084C45.4426 26.2875 45.4426 28.0412 43.5456 29.1203L36.9189 32.889L36.7925 32.9564Z" fill="url(#paint0_linear)"/>
<path d="M36.9196 32.8806L31.195 27.156L14.3079 44.0431C14.9317 44.7007 15.9603 44.7851 17.1238 44.1274L36.9196 32.8806Z" fill="url(#paint1_linear)"/>
<path d="M36.9196 21.4314L17.1238 10.193C15.9603 9.53535 14.9317 9.61124 14.3079 10.2773L31.195 27.156L36.9196 21.4314Z" fill="url(#paint2_linear)"/>
<path d="M62.3289 11.23C61.8231 10.7747 61.1486 10.488 60.4067 10.488C58.7374 10.488 57.4559 11.8623 57.4559 13.5569C57.4559 15.2431 58.7374 16.6089 60.4067 16.6089C61.8399 16.6089 62.8854 15.7742 62.9528 14.459H60.6849V13.5232H64.1837C64.1837 16.3222 62.6915 17.6459 60.4067 17.6459C58.1388 17.6459 56.3767 15.8164 56.3767 13.5569C56.3767 11.289 58.1388 9.45947 60.4067 9.45947C61.4605 9.45947 62.4132 9.86416 63.1046 10.5133L62.3289 11.23Z" fill="black"/>
<path d="M70.3721 9.55225V10.5555H66.7215V13.1017H69.9084V14.1134H66.7215V16.5246H70.4817V17.5279H65.6423V9.55225H70.3721Z" fill="black"/>
<path d="M77.3522 9.55225V10.5724H74.9325V17.5279H73.845V10.5724H71.4253V9.55225H77.3522Z" fill="black"/>
<path d="M82.5213 9.55225V17.5279H81.4421V9.55225H82.5213Z" fill="black"/>
<path d="M89.8637 9.55225V10.5724H87.444V17.5279H86.3564V10.5724H83.9368V9.55225H89.8637Z" fill="black"/>
<path d="M97.4597 9.45947C99.7444 9.45947 101.515 11.289 101.515 13.5569C101.515 15.8164 99.7444 17.6459 97.4597 17.6459C95.1917 17.6459 93.4297 15.8164 93.4297 13.5569C93.4297 11.289 95.1917 9.45947 97.4597 9.45947ZM97.4597 16.6005C99.1374 16.6005 100.427 15.2431 100.427 13.5569C100.427 11.8623 99.1458 10.4965 97.4597 10.4965C95.7903 10.4965 94.5088 11.8623 94.5088 13.5569C94.5088 15.2515 95.7903 16.6005 97.4597 16.6005Z" fill="black"/>
<path d="M107.881 17.5279L104.247 11.5166V17.5279H103.168V9.55225H104.231L107.831 15.5129V9.55225H108.91V17.5279H107.881Z" fill="black"/>
<defs>
<linearGradient id="paint0_linear" x1="42.3149" y1="27.158" x2="9.53076" y2="27.158" gradientUnits="userSpaceOnUse">
<stop stop-color="#FEE000"/>
<stop offset="0.1941" stop-color="#FCCF0B"/>
<stop offset="0.5469" stop-color="#FAB318"/>
<stop offset="0.8279" stop-color="#F9A21B"/>
<stop offset="1" stop-color="#F99B1C"/>
</linearGradient>
<linearGradient id="paint1_linear" x1="33.8076" y1="30.2673" x2="2.97275" y2="61.1022" gradientUnits="userSpaceOnUse">
<stop stop-color="#EF4547"/>
<stop offset="1" stop-color="#C6186D"/>
</linearGradient>
<linearGradient id="paint2_linear" x1="2.83532" y1="-6.92432" x2="28.0112" y2="18.2516" gradientUnits="userSpaceOnUse">
<stop stop-color="#279E6F"/>
<stop offset="0.3168" stop-color="#4DAB6D"/>
<stop offset="0.7398" stop-color="#6ABA6A"/>
<stop offset="1" stop-color="#74C169"/>
</linearGradient>
</defs>
</svg>
